<?xml version="1.0" standalone="no"?>
<!DOCTYPE svg PUBLIC "-//W3C//DTD SVG 20010904//EN"
 "http://www.w3.org/TR/2001/REC-SVG-20010904/DTD/svg10.dtd">
<svg version="1.0" xmlns="http://www.w3.org/2000/svg"
 width="512.000000pt" height="512.000000pt" viewBox="0 0 512.000000 512.000000"
 preserveAspectRatio="xMidYMid meet">
<g transform="translate(0.000000,512.000000) scale(0.100000,-0.100000)"
fill="#ff0000" stroke="none">
<path d="M2380 5110 c-19 -5 -45 -19 -58 -31 -13 -12 -322 -324 -687 -693
-365 -369 -672 -681 -682 -693 -10 -12 -18 -28 -18 -35 0 -7 306 -319 680
-693 374 -374 680 -686 680 -693 0 -7 -306 -319 -680 -693 -374 -374 -680 -686
-680 -693 0 -7 8 -23 18 -35 10 -12 317 -324 682 -693 365 -369 674 -681 687
-693 13 -12 39 -26 58 -31 19 -5 35 -9 35 -9 0 0 16 4 35 9 19 5 45 19 58 31
13 12 322 324 687 693 365 369 672 681 682 693 10 12 18 28 18 35 0 7 -306 319
-680 693 -374 374 -680 686 -680 693 0 7 306 319 680 693 374 374 680 686 680
693 0 7 -8 23 -18 35 -10 12 -317 324 -682 693 -365 369 -674 681 -687 693
-13 12 -39 26 -58 31 -19 5 -35 9 -35 9 0 0 -16 -4 -35 -9z"/>
</g>
</svg> 